<svg width="116" height="27" viewBox="0 0 116 27" fill="none" xmlns="http://www.w3.org/2000/svg">
<g clip-path="url(#clip0_13602_1642)">
<path d="M13.8344 7.613C13.3274 9.977 11.4344 11.658 7.85437 11.658C3.71438 11.658 1.63638 9.009 1.63638 5.821C1.63638 2.76 3.68237 0 7.99738 0C11.7884 0 13.5654 1.967 13.8504 3.981H10.2024C10.0862 3.49712 9.79473 3.07352 9.38426 2.79219C8.9738 2.51085 8.47357 2.39177 7.98037 2.458C6.28037 2.458 5.45837 3.791 5.45837 5.742C5.45837 7.518 6.12438 9.168 7.99638 9.168C8.49297 9.22698 8.99389 9.10105 9.40355 8.81424C9.8132 8.52742 10.1029 8.09981 10.2174 7.613H13.8344ZM27.8544 5.805C27.8544 8.946 25.7604 11.658 21.3824 11.658C17.3544 11.658 15.1334 9.088 15.1334 5.821C15.1334 2.744 17.2904 0 21.5414 0C25.5704 0 27.8544 2.633 27.8544 5.805ZM18.9544 5.758C18.9544 7.709 19.7314 9.136 21.5544 9.136C23.4424 9.136 24.0294 7.502 24.0294 5.821C24.0294 3.886 23.3474 2.458 21.4594 2.458C19.6694 2.458 18.9564 3.933 18.9564 5.758H18.9544ZM40.3044 7.645L40.4314 2.427H40.3994L38.0204 11.405H35.0534L32.8964 2.396H32.8644L33.0714 7.773V11.406H29.8354V0.254H35.0224L36.7664 7.376H36.7824L38.6704 0.254H43.8414V11.404H40.3044V7.645ZM46.4734 0.254H52.7384C55.4194 0.254 57.2934 1.588 57.2934 3.888C57.2934 6.252 55.5324 7.615 52.7574 7.615H50.0734V11.406H46.4734V0.254ZM50.0734 5.171H52.1834C53.1514 5.171 53.7224 4.771 53.7224 3.918C53.7224 3.204 53.2944 2.696 52.1834 2.696H50.0734V5.171ZM58.9394 0.254H62.5724V8.819H68.5524L68.1244 11.404H58.9394V0.254ZM70.9614 11.404V7.534C70.9619 7.3768 70.9054 7.22475 70.8024 7.106L66.3144 0.254H70.5654L72.9444 4.727C73.4834 3.585 74.4664 1.936 75.3714 0.254H79.2714L74.6864 7.217C74.6201 7.33195 74.5924 7.46514 74.6074 7.597V11.404H70.9614ZM5.20638 24.254L4.49237 26.33H0.859375L5.07837 15.18H9.80538L14.2934 26.33H10.4084L9.64738 24.252L5.20638 24.254ZM8.80638 21.669L7.37838 17.469H7.31537C7.07737 18.389 6.58538 19.975 5.98238 21.669H8.80638ZM15.4984 15.181H21.1424C25.1704 15.181 27.2014 17.639 27.2014 20.574C27.2014 24.016 24.6794 26.332 21.1104 26.332H15.4984V15.181ZM19.1154 23.83H20.6854C22.4774 23.83 23.3854 22.751 23.3854 20.658C23.3854 18.945 22.6714 17.692 20.6854 17.676H19.1154V23.83ZM31.9434 26.33L27.5984 15.18H31.5474L33.1814 20.18C33.5874 21.361 33.9314 22.563 34.2114 23.78H34.2434C34.5583 22.5079 34.9394 21.2532 35.3854 20.021L36.9084 15.183H40.7944L36.3714 26.33H31.9434ZM43.8884 24.254L43.1764 26.33H39.5424L43.7614 15.18H48.4884L52.9764 26.33H49.0904L48.3294 24.252L43.8884 24.254ZM47.4884 21.669L46.0604 17.469H45.9974C45.7594 18.389 45.2674 19.975 44.6644 21.669H47.4884ZM54.1814 26.33V15.181H58.4014L62.4304 22.064H62.4934C62.3824 21.002 62.3984 18.987 62.3984 17.147V15.181H65.6494V26.33H61.6684L57.3854 18.669H57.3384C57.4384 19.938 57.4494 21.429 57.4494 23.618V26.33H54.1814ZM70.8934 17.75H67.1934V15.181H78.1704V17.75H74.5134V26.33H70.8934V17.75ZM81.4454 24.254L80.7344 26.33H77.1014L81.3204 15.18H86.0474L90.5344 26.33H86.6484L85.8864 24.252L81.4454 24.254ZM85.0454 21.669L83.6174 17.469H83.5544C83.3164 18.389 82.8244 19.975 82.2224 21.669H85.0454ZM103.078 26.331H100.588C100.491 25.9977 100.417 25.6583 100.366 25.315C99.6524 26.108 98.7164 26.584 96.6664 26.584C95.9019 26.6355 95.1352 26.5225 94.418 26.2527C93.7008 25.9829 93.0498 25.5626 92.5087 25.02C91.9677 24.4774 91.5492 23.8252 91.2814 23.1073C91.0136 22.3893 90.9028 21.6224 90.9564 20.858C90.9564 17.686 92.9714 14.926 97.3644 14.926C100.901 14.926 102.757 16.718 103.09 18.59H99.4654C99.3169 18.1646 99.0254 17.804 98.6405 17.5698C98.2556 17.3356 97.8014 17.2424 97.3554 17.306C95.4684 17.306 94.7864 18.861 94.7864 20.669C94.7864 22.636 95.5634 24.142 97.4354 24.142C99.0214 24.142 99.5924 23.242 99.5924 22.382V22.27H97.4034V19.828H103.081L103.078 26.331ZM114.942 21.89H108.978V23.762H115.64L115.227 26.33H105.407V15.181H115.257V17.75H108.976V19.305H114.94L114.942 21.89Z" fill="#1D1D20"/>
</g>
<defs>
<clipPath id="clip0_13602_1642">
<rect width="115" height="27" fill="white" transform="translate(0.859375)"/>
</clipPath>
</defs>
</svg>
