<svg width="133" height="26" viewBox="0 0 133 26" fill="none" xmlns="http://www.w3.org/2000/svg">
<path d="M38.4355 0C40.3455 0 43.5277 0.62284 46.3578 2.46143C53.8318 7.31617 53.9397 17.7697 46.5854 22.8155C41.3088 26.4378 32.164 26.2884 27.0053 22.4966C19.719 17.1403 20.6192 6.03064 28.6778 1.88343C31.1724 0.59791 33.8099 0.00332175 38.4355 0ZM45.0092 12.8336C44.9793 10.3871 44.4578 8.20806 43.1922 6.23992C40.4302 1.94656 35.2399 1.38351 31.8252 5.00256C28.05 9.00361 28.1363 16.6901 32.0012 20.5915C35.0522 23.6708 39.5599 23.518 42.3917 20.2262C44.2485 18.067 44.9594 15.501 45.0092 12.8336Z" fill="#72777D"/>
<path d="M132.514 21.6934V24.3591C132.169 24.3757 131.871 24.4006 131.576 24.4006C125.596 24.4006 119.617 24.4006 113.638 24.4006C111.381 24.4006 110.316 23.341 110.316 21.1055C110.316 15.4585 110.316 9.8115 110.316 4.16452C110.316 1.95556 111.374 0.880966 113.553 0.879305C119.559 0.879305 125.563 0.892593 131.567 0.859375C132.381 0.859375 132.609 1.09189 132.575 1.88579C132.496 3.85558 132.826 3.58487 130.838 3.59317C127.018 3.60812 123.198 3.59317 119.378 3.59317C117.807 3.59317 117.37 4.04493 117.369 5.62941C117.369 6.98634 117.403 8.34494 117.354 9.70022C117.327 10.4111 117.593 10.5821 118.262 10.5788C122.58 10.5539 126.899 10.5655 131.217 10.5655H132.33C132.33 11.3794 132.363 12.1151 132.301 12.8426C132.29 12.9871 131.923 13.203 131.713 13.2113C130.717 13.2528 129.72 13.2329 128.724 13.2329C125.319 13.2329 121.915 13.2329 118.513 13.2329C118.161 13.2329 117.809 13.2644 117.39 13.2844C117.39 15.7093 117.355 18.0594 117.408 20.4062C117.428 21.2566 118.098 21.6851 119.137 21.6868C122.652 21.6934 126.166 21.6934 129.681 21.6868L132.514 21.6934Z" fill="#72777D"/>
<path d="M107.364 0.876127C107.364 1.70656 107.374 2.44566 107.364 3.18641C107.354 3.75941 106.909 3.6365 106.572 3.63816C103.888 3.63816 101.203 3.67305 98.5186 3.62322C97.6882 3.60827 97.4374 3.81422 97.4423 4.67787C97.4805 10.8547 97.4623 17.0331 97.4623 23.2099V24.3526H90.2076C90.186 24.0204 90.1428 23.6783 90.1411 23.3328C90.1411 17.1322 90.1411 10.9272 90.1411 4.71773C90.1411 3.64315 90.1411 3.64315 89.0416 3.64149H81.6972C81.6972 2.79943 81.6757 2.03709 81.7155 1.27807C81.7155 1.14021 81.9563 0.964154 82.1224 0.897719C82.2885 0.831284 82.5044 0.876127 82.6988 0.876127H107.369H107.364Z" fill="#72777D"/>
<path d="M70.6741 3.63881C70.6525 4.11216 70.621 4.49415 70.621 4.87449C70.621 11.0264 70.621 17.1777 70.621 23.3285C70.621 24.4197 70.621 24.4197 69.5431 24.4214H63.3198C63.3032 24.0327 63.2749 23.7121 63.2749 23.3916C63.2749 17.1583 63.2567 10.9234 63.2915 4.69014C63.2915 3.8597 63.0906 3.60061 62.2352 3.61888C59.606 3.67535 56.9752 3.60725 54.346 3.65874C53.5488 3.67369 53.3678 3.39632 53.3794 2.66221C53.411 0.875109 53.3794 0.875108 55.1931 0.875108C62.8066 0.875108 70.42 0.890055 78.0335 0.853516C78.8905 0.853516 79.118 1.09435 79.0915 1.92313C79.0383 3.64048 79.0815 3.64047 77.3741 3.64047H70.6741V3.63881Z" fill="#72777D"/>
<path d="M7.11027 0.875V2.07747C7.11027 7.89497 7.11027 13.7125 7.11027 19.5299C7.11027 21.249 7.54044 21.6708 9.2827 21.6725C12.9084 21.6725 16.5357 21.6924 20.1614 21.6559C20.9005 21.6559 21.1031 21.8685 21.0899 22.5926C21.0566 24.403 21.0899 24.4046 19.3061 24.4046H3.52776C1.09956 24.4046 0.0797859 23.3948 0.078125 20.9849C0.078125 14.6403 0.078125 8.2969 0.078125 1.95457C0.078125 0.879983 0.0781193 0.878325 1.17264 0.878325L7.11027 0.875Z" fill="#72777D"/>
</svg>
