<svg width="141" height="26" viewBox="0 0 141 26" fill="none" xmlns="http://www.w3.org/2000/svg">
<path d="M133.03 15.3904C133.682 15.1362 134.213 14.9335 134.742 14.7258C136.279 14.1111 137.668 13.2703 138.214 11.6138C139.18 8.68795 138.846 5.90994 136.799 3.51739C135.126 1.56015 132.796 0.829085 130.352 0.415373C129.355 0.249224 128.342 0.136242 127.336 0H114.543C114.553 0.441957 114.571 0.885575 114.571 1.32919C114.571 8.91446 114.571 16.5019 114.571 24.0916C114.571 25.1816 114.571 25.1833 115.684 25.1849C118.315 25.1849 120.945 25.1683 123.575 25.1982C124.221 25.1982 124.45 25.0055 124.44 24.3459C124.407 22.1859 124.426 20.026 124.44 17.866C124.455 17.5917 124.484 17.3183 124.527 17.0469L124.75 17.0037C124.929 17.2629 125.132 17.5022 125.285 17.783C126.534 20.0326 127.787 22.2806 129.01 24.5436C129.269 25.0221 129.591 25.1965 130.129 25.1949C133.479 25.1749 136.829 25.1849 140.178 25.1799C140.434 25.1599 140.688 25.1255 140.939 25.0769C138.179 21.847 136.201 18.2282 133.03 15.3904ZM127.322 11.0988C126.501 11.2832 125.524 11.554 124.818 11.2749C123.869 10.9027 124.748 9.77954 124.431 9.22128V8.05824C124.431 6.7008 124.431 6.68586 125.818 6.76229C126.313 6.78602 126.804 6.86289 127.283 6.99157C128.303 7.27735 128.797 7.98846 128.815 9.08339C128.832 10.0786 128.322 10.8728 127.322 11.0988Z" fill="#72777D"/>
<path d="M52.4284 1.17476C52.1509 0.476933 51.812 0.209435 51.0394 0.221065C47.9114 0.268695 44.7828 0.268695 41.6536 0.221065C40.9359 0.211096 40.6302 0.485235 40.3892 1.10663C38.1185 6.96063 35.8323 12.8091 33.5306 18.652C32.64 20.9149 31.7113 23.1629 30.8008 25.4176H41.6005C41.8115 24.5636 42.0341 23.7129 42.2252 22.8539C42.3382 22.3438 42.6223 22.1179 43.139 22.1179C45.3687 22.1179 47.5985 22.1179 49.8282 22.1179C50.2884 22.1179 50.5891 22.284 50.7038 22.7974C50.9032 23.678 51.1674 24.5436 51.4033 25.4159H62.203C62.0784 25.1385 61.9421 24.866 61.8292 24.5852C58.6889 16.7839 55.5553 8.98045 52.4284 1.17476ZM47.8909 16.3691C46.7395 16.3409 45.5864 16.3691 44.3419 16.3691C44.3584 16.0951 44.39 15.8222 44.4366 15.5516C44.965 13.3269 45.495 11.1005 46.0483 8.88076C46.0998 8.6764 46.3191 8.51523 46.462 8.33579C46.5916 8.52188 46.7943 8.69135 46.8425 8.89904C47.419 11.1138 47.954 13.3402 48.5455 15.545C48.7216 16.2046 48.5256 16.3841 47.8909 16.3691Z" fill="#72777D"/>
<path d="M28.58 24.2621C28.58 24.6476 28.6216 25.0331 28.6432 25.4252H18.8404C18.812 25.2677 18.7616 25.115 18.6908 24.9716C15.8109 20.7735 12.931 16.5788 10.0511 12.3874C9.88816 12.2019 9.70541 12.0347 9.50608 11.889C9.37691 12.1663 9.33519 12.4763 9.38646 12.7779C9.53599 14.009 9.7902 15.2352 9.82011 16.4681C9.89487 19.4587 9.8633 22.4494 9.87493 25.4401H0.238281C0.258219 24.9982 0.294776 24.5579 0.294776 24.1109C0.294776 16.5245 0.294776 8.93706 0.294776 1.34847C0.294776 0.260192 0.294769 0.25854 1.398 0.256878C3.89024 0.256878 6.38249 0.291769 8.87473 0.235278C9.69384 0.217001 10.1823 0.474524 10.6293 1.16072C13.3524 5.33273 16.1122 9.46818 18.8752 13.6219C19.063 13.9044 19.3006 14.1553 19.5149 14.4194L19.7409 14.3513C19.7409 14.1021 19.799 13.8363 19.7309 13.6086C18.8769 10.7226 19.0796 7.75519 19.0215 4.80272C18.9965 3.58485 19.0431 2.36531 19.0082 1.14744C18.9866 0.466224 19.2291 0.22697 19.922 0.235278C22.4691 0.268508 25.0178 0.278477 27.5649 0.235278C28.364 0.220324 28.6 0.459568 28.5966 1.26207C28.5651 8.92321 28.575 16.5993 28.58 24.2621Z" fill="#72777D"/>
<path d="M87.2923 0.24184C87.5565 0.24184 87.8207 0.26841 88.2244 0.290009C87.603 1.71557 87.0331 3.02648 86.4616 4.33574C83.5041 11.1013 80.5483 17.868 77.5942 24.6359C77.4845 24.8867 77.4164 25.1559 77.3283 25.4168H68.6886C68.0456 23.8633 67.4242 22.2998 66.7529 20.7646C63.8852 14.1718 61.0092 7.58119 58.1248 0.992817C58.0401 0.796761 57.9769 0.590747 57.8789 0.318262C58.1074 0.282761 58.3375 0.258906 58.5684 0.246809C61.5292 0.246809 64.49 0.261768 67.4524 0.231861C68.0904 0.231861 68.3812 0.449524 68.5739 1.04932C69.7054 4.57667 70.9 8.08076 72.0082 11.6181C72.3738 12.7977 72.5067 14.0488 72.7626 15.2634C72.8041 15.4528 72.9586 15.6173 73.06 15.7934C73.1879 15.614 73.4022 15.4461 73.4321 15.2501C74.1549 10.3753 76.1437 5.86431 77.453 1.15897C77.6507 0.446186 78.0029 0.216903 78.7406 0.226872C81.5901 0.265086 84.4412 0.238517 87.2923 0.24184Z" fill="#72777D"/>
<path d="M109.996 19.5283C109.985 21.4905 110.031 23.4544 110.055 25.4166H90.7812C90.7945 24.4197 90.8195 23.4228 90.8195 22.426C90.8195 15.3945 90.8195 8.36364 90.8195 1.33331C90.8195 0.238391 90.8195 0.236734 91.926 0.236734C97.4887 0.236734 103.058 0.255011 108.617 0.216797C109.481 0.216797 109.707 0.482625 109.677 1.30673C109.619 2.88182 109.638 4.46356 109.677 6.03865C109.691 6.68996 109.466 6.90929 108.813 6.90098C106.487 6.87107 104.161 6.90097 101.835 6.87605C101.189 6.87605 100.961 7.05384 100.983 7.71844C101.053 9.87838 100.702 9.51617 102.761 9.54608C104.559 9.56823 106.358 9.56823 108.157 9.54608C108.765 9.53611 108.988 9.73217 108.988 10.3552C108.956 11.9336 108.956 13.5115 108.988 15.0888C109.003 15.7268 108.744 15.8913 108.157 15.8847C106.054 15.8597 103.95 15.8946 101.843 15.8631C101.179 15.8531 100.975 16.0757 100.994 16.727C101.063 18.9435 100.662 18.6627 102.922 18.6776C104.997 18.6926 107.075 18.7026 109.149 18.6776C109.807 18.6511 110 18.8853 109.996 19.5283Z" fill="#72777D"/>
</svg>
