<svg width="64" height="33" viewBox="0 0 64 33" fill="none" xmlns="http://www.w3.org/2000/svg">
<g clip-path="url(#clip0_13602_1640)">
<path d="M6.27256 25.4694C4.46956 25.5264 2.66656 25.1314 0.976562 24.3994L1.42656 21.0194C2.89606 21.7554 4.51609 22.1408 6.15956 22.1454C7.22956 22.1454 7.90656 21.8074 7.90656 21.1314C7.90656 19.2724 1.25856 19.7234 1.25856 14.9344C1.25856 11.8354 4.07556 10.2584 7.62456 10.2584C9.25856 10.3144 10.8926 10.5964 12.4136 11.1604L11.9636 14.4834C10.5796 13.9365 9.11186 13.6318 7.62456 13.5824C6.77956 13.5824 6.04756 13.8644 6.04756 14.4274C6.04756 16.2304 12.8646 15.8924 12.8646 20.5674C12.8646 23.7234 10.1036 25.5264 6.27256 25.4694ZM24.6956 25.1884V16.8494C24.6956 14.9334 23.8506 14.0324 22.2726 14.0324C21.5406 14.0324 20.7526 14.2014 20.1326 14.5954V25.1894H15.1746V10.7654L20.0196 10.3714L19.9066 12.7374H20.0766C20.6505 11.9644 21.3982 11.3372 22.2593 10.9066C23.1204 10.476 24.0708 10.2539 25.0336 10.2584C27.5686 10.2584 29.7666 11.8354 29.7666 15.4984V25.1884H24.6956ZM41.6536 10.5964H46.5556L40.8086 25.0754C39.1186 29.4134 36.6396 32.3994 32.9776 32.3994C31.8506 32.3994 30.7806 32.1744 29.7666 31.6674L31.6816 28.6244C31.9636 28.6814 32.3016 28.6814 32.5836 28.6814C34.2736 28.6814 35.5136 27.0474 36.3576 25.1314L30.3856 10.5964H35.9076L38.0476 17.0754C38.3866 18.2584 38.6116 19.4414 38.7806 20.6814C39.0056 19.4984 39.2306 18.3144 39.5696 17.1884L41.6536 10.5964ZM57.3736 25.1884L53.4286 18.3144H53.0346V25.1884H48.0766V8.11844L53.0346 0.398438V16.3434C53.9926 15.1594 57.3166 10.5964 57.3166 10.5964H63.4016L57.5986 16.6814L63.5706 25.1884H57.3736Z" fill="#1D1D20"/>
</g>
<defs>
<clipPath id="clip0_13602_1640">
<rect width="63" height="33" fill="white" transform="translate(0.71875)"/>
</clipPath>
</defs>
</svg>
