<svg width="43" height="40" viewBox="0 0 43 40" fill="none" xmlns="http://www.w3.org/2000/svg">
<path d="M23.1064 21.9224C26.8702 23.6775 30.7549 24.549 34.0381 24.3775C34.058 24.3765 34.0768 24.3745 34.0967 24.3732L34.3323 1.03624C34.3406 0.211119 33.4195 -0.28468 32.7357 0.177028L13.1055 13.4206C14.6958 16.4507 18.3682 19.7124 23.1064 21.9224Z" fill="#08344E"/>
<path d="M33.2186 26.6184C29.7944 26.6184 25.9111 25.6791 22.1688 23.9342C17.0063 21.5267 13.124 18.0932 11.2576 14.668L1.27652 21.4016C0.496752 21.9276 0.77908 23.1386 1.71143 23.2654L18.4732 25.5448C19.4594 25.6788 20.364 26.1657 21.0193 26.915L32.1552 39.6486C32.7744 40.3565 33.9404 39.9253 33.95 38.9846L34.0752 26.5969C33.7928 26.6098 33.5079 26.6184 33.2186 26.6184Z" fill="#08344E"/>
<path d="M33.2199 24.8523C29.7957 24.8523 25.9121 23.913 22.1701 22.1681C13.3656 18.0621 8.27527 10.9719 10.5815 6.02653C12.888 1.08112 21.5916 0.4238 30.3961 4.52986C33.2766 5.87296 35.8873 7.61487 37.9456 9.56729C38.3904 9.98928 38.4089 10.6916 37.9873 11.1364C37.5653 11.5809 36.8629 11.5998 36.4181 11.1778C34.5312 9.3879 32.1241 7.78466 29.4578 6.54153C22.0374 3.08086 14.3142 3.27448 12.5931 6.96484C10.8724 10.6549 15.6877 16.6958 23.1084 20.1568C26.8722 21.912 30.7542 22.7847 34.0401 22.6116C37.0744 22.4528 39.1814 21.4307 39.9731 19.7335C40.7985 17.9638 39.9999 15.9428 39.1847 14.5587C38.8736 14.0308 39.0493 13.3503 39.5776 13.0392C40.1058 12.7281 40.7863 12.9042 41.0971 13.4321C42.6318 16.0372 42.9472 18.6085 41.9847 20.6718C40.8296 23.1485 38.0495 24.625 34.1559 24.8285C33.8485 24.8444 33.536 24.8523 33.2199 24.8523Z" fill="#08344E"/>
</svg>
