<svg width="95" height="33" viewBox="0 0 95 33" fill="none" xmlns="http://www.w3.org/2000/svg">
<g clip-path="url(#clip0_13602_1644)">
<path d="M0.0234375 0.0996094H32.0234V32.0996H0.0234375V0.0996094ZM28.7014 28.7776V3.42161H3.34644V28.7616H28.7014V28.7776ZM6.22944 8.35761V18.0276C6.22944 22.4466 8.65844 25.0636 12.7644 25.0636C16.9954 25.0636 19.4244 22.4466 19.4244 18.0276V8.35761H16.1024V18.0276C16.1024 20.5186 15.0204 21.9296 12.8424 21.9296C10.5394 21.9296 9.52044 20.4566 9.52044 18.0276V8.35761H6.22944ZM23.7024 10.3326C24.8624 10.3326 25.7554 9.50261 25.7554 8.34261C25.7554 7.12061 24.9254 6.28961 23.7024 6.28961C22.5424 6.28961 21.6494 7.11961 21.6494 8.34261C21.6654 9.50261 22.5594 10.3326 23.7024 10.3326ZM22.0414 11.8686V24.8756H25.3634V11.8686H22.0414ZM41.8814 19.5626C45.4694 19.5626 47.8354 17.4476 47.8354 13.9376C47.8354 10.5526 45.5324 8.37361 41.8814 8.37361H35.6124V24.9536H38.9344V19.6416H41.8814V19.5626ZM41.5044 16.9306H38.8874V11.0376H41.5044C43.4324 11.0376 44.4514 12.1196 44.4514 13.9216C44.4514 15.8486 43.4164 16.9306 41.5044 16.9306ZM48.9324 18.4036C48.9324 22.3056 51.4244 25.0636 54.9504 25.0636C57.0664 25.0636 58.4134 24.2956 59.1814 23.0736V24.9226H62.5034V11.8686H59.1814V13.9216C58.3514 12.5736 57.0034 11.7436 54.9504 11.7436C51.3614 11.7436 48.9324 14.5636 48.9324 18.4036ZM59.1654 18.4036C59.1654 20.6436 57.7554 22.1176 55.7024 22.1176C53.4624 22.1176 52.3174 20.5186 52.3174 18.4036C52.3174 16.0996 53.6024 14.6266 55.7024 14.6266C57.8024 14.6266 59.1654 16.1626 59.1654 18.4036ZM70.8094 22.0546C69.5244 22.0546 69.2114 21.4746 69.2114 20.3306V14.6896H72.0944V11.8686H69.2114V8.27961H65.8884V11.8686H64.3534V14.6886H65.8884V20.3306C65.8884 23.4026 67.2364 24.8756 70.4334 24.8756H72.1574V22.0546H70.8094ZM77.2814 13.7336V7.58961H73.9594V24.9376H77.2814V18.0266C77.2814 15.7856 78.4414 14.4376 80.4154 14.4376C82.3434 14.4376 83.3624 15.7226 83.3624 17.6976V24.8746H86.6844V17.3846C86.6844 13.9986 84.2544 11.7576 81.1844 11.7576C79.2714 11.7426 78.0494 12.4476 77.2814 13.7326V13.7336ZM86.4334 7.52761V8.04461H87.5144V11.3666H88.1574V8.04561H89.1754V7.52861L86.4334 7.52761ZM93.3434 7.52761L91.9964 10.5996L90.7114 7.52761H89.9434V11.3676H90.5234V8.41961L91.8084 11.3666H92.2634L93.4854 8.41961V11.3666H94.0654V7.52661H93.3444L93.3434 7.52761Z" fill="#1D1D20"/>
</g>
<defs>
<clipPath id="clip0_13602_1644">
<rect width="95" height="33" fill="white"/>
</clipPath>
</defs>
</svg>
